solid PARTassembly
   facet normal -1.0000 0.0000 0.0000
      outer loop
         vertex 0.0000 5.0000 0.0000
         vertex 0.0000 4.8296 -1.2941
         vertex 0.0000 4.8296 1.2941
      endloop
   endfacet
   facet normal -1.0000 0.0000 0.0000
      outer loop
         vertex 0.0000 4.8296 1.2941
         vertex 0.0000 4.8296 -1.2941
         vertex 0.0000 4.3301 -2.5000
      endloop
   endfacet
   facet normal -1.0000 0.0000 0.0000
      outer loop
         vertex 0.0000 4.8296 1.2941
         vertex 0.0000 4.3301 -2.5000
         vertex 0.0000 4.3301 2.5000
      endloop
   endfacet
   facet normal -1.0000 0.0000 0.0000
      outer loop
         vertex 0.0000 4.3301 2.5000
         vertex 0.0000 4.3301 -2.5000
         vertex 0.0000 3.5355 -3.5355
      endloop
   endfacet
   facet normal -1.0000 0.0000 0.0000
      outer loop
         vertex 0.0000 4.3301 2.5000
         vertex 0.0000 3.5355 -3.5355
         vertex 0.0000 3.5355 3.5355
      endloop
   endfacet
   facet normal -1.0000 0.0000 0.0000
      outer loop
         vertex 0.0000 3.5355 3.5355
         vertex 0.0000 3.5355 -3.5355
         vertex 0.0000 2.5000 -4.3301
      endloop
   endfacet
   facet normal -1.0000 0.0000 0.0000
      outer loop
         vertex 0.0000 3.5355 3.5355
         vertex 0.0000 2.5000 -4.3301
         vertex 0.0000 2.5000 4.3301
      endloop
   endfacet
   facet normal -1.0000 0.0000 0.0000
      outer loop
         vertex 0.0000 2.5000 4.3301
         vertex 0.0000 2.5000 -4.3301
         vertex 0.0000 1.5000 -0.8660
      endloop
   endfacet
   facet normal -1.0000 0.0000 0.0000
      outer loop
         vertex 0.0000 2.5000 4.3301
         vertex 0.0000 1.5000 -0.8660
         vertex 0.0000 1.5000 0.8660
      endloop
   endfacet
   facet normal -1.0000 0.0000 0.0000
      outer loop
         vertex 0.0000 2.5000 -4.3301
         vertex 0.0000 1.2941 -4.8296
         vertex 0.0000 1.5000 -0.8660
      endloop
   endfacet
   facet normal -1.0000 0.0000 0.0000
      outer loop
         vertex 0.0000 1.5000 -0.8660
         vertex 0.0000 1.2941 -4.8296
         vertex 0.0000 0.0000 -5.0000
      endloop
   endfacet
   facet normal -1.0000 0.0000 0.0000
      outer loop
         vertex 0.0000 1.5000 -0.8660
         vertex 0.0000 0.0000 -5.0000
         vertex 0.0000 -0.0000 -1.7321
      endloop
   endfacet
   facet normal -1.0000 0.0000 0.0000
      outer loop
         vertex 0.0000 -0.0000 -1.7321
         vertex 0.0000 0.0000 -5.0000
         vertex 0.0000 -1.2941 -4.8296
      endloop
   endfacet
   facet normal -1.0000 0.0000 0.0000
      outer loop
         vertex 0.0000 -0.0000 -1.7321
         vertex 0.0000 -1.2941 -4.8296
         vertex 0.0000 -1.5000 -0.8660
      endloop
   endfacet
   facet normal -1.0000 0.0000 0.0000
      outer loop
         vertex 0.0000 -1.5000 -0.8660
         vertex 0.0000 -1.2941 -4.8296
         vertex 0.0000 -2.5000 -4.3301
      endloop
   endfacet
   facet normal -1.0000 0.0000 0.0000
      outer loop
         vertex 0.0000 -1.5000 -0.8660
         vertex 0.0000 -2.5000 -4.3301
         vertex 0.0000 -1.5000 0.8660
      endloop
   endfacet
   facet normal -1.0000 0.0000 0.0000
      outer loop
         vertex 0.0000 -1.5000 0.8660
         vertex 0.0000 -2.5000 -4.3301
         vertex 0.0000 -1.2941 4.8296
      endloop
   endfacet
   facet normal -1.0000 0.0000 0.0000
      outer loop
         vertex 0.0000 -1.5000 0.8660
         vertex 0.0000 -1.2941 4.8296
         vertex 0.0000 -0.0000 1.7321
      endloop
   endfacet
   facet normal -1.0000 0.0000 0.0000
      outer loop
         vertex 0.0000 -0.0000 1.7321
         vertex 0.0000 -1.2941 4.8296
         vertex 0.0000 -0.0000 5.0000
      endloop
   endfacet
   facet normal -1.0000 0.0000 0.0000
      outer loop
         vertex 0.0000 -0.0000 1.7321
         vertex 0.0000 -0.0000 5.0000
         vertex 0.0000 1.2941 4.8296
      endloop
   endfacet
   facet normal -1.0000 0.0000 0.0000
      outer loop
         vertex 0.0000 1.5000 0.8660
         vertex 0.0000 -0.0000 1.7321
         vertex 0.0000 1.2941 4.8296
      endloop
   endfacet
   facet normal -1.0000 0.0000 0.0000
      outer loop
         vertex 0.0000 1.5000 0.8660
         vertex 0.0000 1.2941 4.8296
         vertex 0.0000 2.5000 4.3301
      endloop
   endfacet
   facet normal -1.0000 0.0000 0.0000
      outer loop
         vertex 0.0000 -5.0000 -0.0000
         vertex 0.0000 -4.8296 1.2941
         vertex 0.0000 -4.8296 -1.2941
      endloop
   endfacet
   facet normal -1.0000 0.0000 0.0000
      outer loop
         vertex 0.0000 -4.8296 -1.2941
         vertex 0.0000 -4.8296 1.2941
         vertex 0.0000 -4.3301 2.5000
      endloop
   endfacet
   facet normal -1.0000 0.0000 0.0000
      outer loop
         vertex 0.0000 -4.8296 -1.2941
         vertex 0.0000 -4.3301 2.5000
         vertex 0.0000 -4.3301 -2.5000
      endloop
   endfacet
   facet normal -1.0000 0.0000 0.0000
      outer loop
         vertex 0.0000 -4.3301 -2.5000
         vertex 0.0000 -4.3301 2.5000
         vertex 0.0000 -3.5355 3.5355
      endloop
   endfacet
   facet normal -1.0000 0.0000 0.0000
      outer loop
         vertex 0.0000 -4.3301 -2.5000
         vertex 0.0000 -3.5355 3.5355
         vertex 0.0000 -3.5355 -3.5355
      endloop
   endfacet
   facet normal -1.0000 0.0000 0.0000
      outer loop
         vertex 0.0000 -3.5355 -3.5355
         vertex 0.0000 -3.5355 3.5355
         vertex 0.0000 -2.5000 4.3301
      endloop
   endfacet
   facet normal -1.0000 0.0000 0.0000
      outer loop
         vertex 0.0000 -3.5355 -3.5355
         vertex 0.0000 -2.5000 4.3301
         vertex 0.0000 -2.5000 -4.3301
      endloop
   endfacet
   facet normal -1.0000 0.0000 0.0000
      outer loop
         vertex 0.0000 -2.5000 -4.3301
         vertex 0.0000 -2.5000 4.3301
         vertex 0.0000 -1.2941 4.8296
      endloop
   endfacet
   facet normal 1.0000 0.0000 0.0000
      outer loop
         vertex 10.0000 1.4209 -1.4209
         vertex 10.0000 1.7403 -1.0048
         vertex 10.0000 1.9410 -0.5201
      endloop
   endfacet
   facet normal 1.0000 0.0000 0.0000
      outer loop
         vertex 10.0000 1.4209 -1.4209
         vertex 10.0000 1.9410 -0.5201
         vertex 10.0000 2.0095 0.0000
      endloop
   endfacet
   facet normal 1.0000 0.0000 0.0000
      outer loop
         vertex 10.0000 1.4209 -1.4209
         vertex 10.0000 2.0095 0.0000
         vertex 10.0000 1.9410 0.5201
      endloop
   endfacet
   facet normal 1.0000 0.0000 0.0000
      outer loop
         vertex 10.0000 1.4209 -1.4209
         vertex 10.0000 1.9410 0.5201
         vertex 10.0000 1.7403 1.0048
      endloop
   endfacet
   facet normal 1.0000 0.0000 0.0000
      outer loop
         vertex 10.0000 1.4209 -1.4209
         vertex 10.0000 1.7403 1.0048
         vertex 10.0000 1.4209 1.4209
      endloop
   endfacet
   facet normal 1.0000 0.0000 0.0000
      outer loop
         vertex 10.0000 1.4209 -1.4209
         vertex 10.0000 1.4209 1.4209
         vertex 10.0000 1.0048 1.7403
      endloop
   endfacet
   facet normal 1.0000 0.0000 0.0000
      outer loop
         vertex 10.0000 1.4209 -1.4209
         vertex 10.0000 1.0048 1.7403
         vertex 10.0000 0.5201 1.9410
      endloop
   endfacet
   facet normal 1.0000 0.0000 0.0000
      outer loop
         vertex 10.0000 1.4209 -1.4209
         vertex 10.0000 0.5201 1.9410
         vertex 10.0000 -0.0000 2.0095
      endloop
   endfacet
   facet normal 1.0000 0.0000 0.0000
      outer loop
         vertex 10.0000 1.4209 -1.4209
         vertex 10.0000 -0.0000 2.0095
         vertex 10.0000 -0.5201 1.9410
      endloop
   endfacet
   facet normal 1.0000 0.0000 0.0000
      outer loop
         vertex 10.0000 1.4209 -1.4209
         vertex 10.0000 -0.5201 1.9410
         vertex 10.0000 -1.0048 1.7403
      endloop
   endfacet
   facet normal 1.0000 0.0000 0.0000
      outer loop
         vertex 10.0000 1.4209 -1.4209
         vertex 10.0000 -1.0048 1.7403
         vertex 10.0000 -1.4209 1.4209
      endloop
   endfacet
   facet normal 1.0000 0.0000 0.0000
      outer loop
         vertex 10.0000 1.4209 -1.4209
         vertex 10.0000 -1.4209 1.4209
         vertex 10.0000 -1.7403 1.0048
      endloop
   endfacet
   facet normal 1.0000 0.0000 0.0000
      outer loop
         vertex 10.0000 1.4209 -1.4209
         vertex 10.0000 -1.7403 1.0048
         vertex 10.0000 -1.9410 0.5201
      endloop
   endfacet
   facet normal 1.0000 0.0000 0.0000
      outer loop
         vertex 10.0000 1.4209 -1.4209
         vertex 10.0000 -1.9410 0.5201
         vertex 10.0000 -2.0095 -0.0000
      endloop
   endfacet
   facet normal 1.0000 0.0000 0.0000
      outer loop
         vertex 10.0000 1.4209 -1.4209
         vertex 10.0000 -2.0095 -0.0000
         vertex 10.0000 -1.9410 -0.5201
      endloop
   endfacet
   facet normal 1.0000 0.0000 0.0000
      outer loop
         vertex 10.0000 1.4209 -1.4209
         vertex 10.0000 -1.9410 -0.5201
         vertex 10.0000 -1.7403 -1.0048
      endloop
   endfacet
   facet normal 1.0000 0.0000 0.0000
      outer loop
         vertex 10.0000 1.4209 -1.4209
         vertex 10.0000 -1.7403 -1.0048
         vertex 10.0000 -1.4209 -1.4209
      endloop
   endfacet
   facet normal 1.0000 0.0000 0.0000
      outer loop
         vertex 10.0000 1.4209 -1.4209
         vertex 10.0000 -1.4209 -1.4209
         vertex 10.0000 -1.0048 -1.7403
      endloop
   endfacet
   facet normal 1.0000 0.0000 0.0000
      outer loop
         vertex 10.0000 1.4209 -1.4209
         vertex 10.0000 -1.0048 -1.7403
         vertex 10.0000 -0.5201 -1.9410
      endloop
   endfacet
   facet normal 1.0000 0.0000 0.0000
      outer loop
         vertex 10.0000 1.4209 -1.4209
         vertex 10.0000 -0.5201 -1.9410
         vertex 10.0000 0.0000 -2.0095
      endloop
   endfacet
   facet normal 1.0000 0.0000 0.0000
      outer loop
         vertex 10.0000 1.4209 -1.4209
         vertex 10.0000 0.0000 -2.0095
         vertex 10.0000 0.5201 -1.9410
      endloop
   endfacet
   facet normal 1.0000 0.0000 0.0000
      outer loop
         vertex 10.0000 1.4209 -1.4209
         vertex 10.0000 0.5201 -1.9410
         vertex 10.0000 1.0048 -1.7403
      endloop
   endfacet
   facet normal 0.0000 0.1739 -0.9848
      outer loop
         vertex 2.8000 0.6470 -2.4148
         vertex 9.5095 0.6470 -2.4148
         vertex 9.5095 0.0000 -2.5000
      endloop
   endfacet
   facet normal 0.0000 0.0869 -0.9962
      outer loop
         vertex 2.8000 0.6470 -2.4148
         vertex 9.5095 0.0000 -2.5000
         vertex 2.8000 0.0000 -2.5000
      endloop
   endfacet
   facet normal 0.7098 0.1225 -0.6937
      outer loop
         vertex 9.5095 0.0000 -2.5000
         vertex 9.5095 0.6470 -2.4148
         vertex 10.0000 0.5201 -1.9410
      endloop
   endfacet
   facet normal 0.7098 0.0612 -0.7017
      outer loop
         vertex 9.5095 0.0000 -2.5000
         vertex 10.0000 0.5201 -1.9410
         vertex 10.0000 0.0000 -2.0095
      endloop
   endfacet
   facet normal -0.9343 -0.0465 0.3535
      outer loop
         vertex 2.3000 0.0000 -1.5000
         vertex 3.1660 0.0000 0.0000
         vertex 2.3000 0.3882 -1.4489
      endloop
   endfacet
   facet normal 0.0000 -0.5000 0.8660
      outer loop
         vertex 0.0000 1.5000 -0.8660
         vertex 0.0000 -0.0000 -1.7321
         vertex 2.3000 0.0000 -1.7321
      endloop
   endfacet
   facet normal 0.0000 -0.5000 0.8660
      outer loop
         vertex 0.0000 1.5000 -0.8660
         vertex 2.3000 0.0000 -1.7321
         vertex 2.3000 0.7500 -1.2990
      endloop
   endfacet
   facet normal 0.0000 -0.5000 0.8660
      outer loop
         vertex 0.0000 1.5000 -0.8660
         vertex 2.3000 0.7500 -1.2990
         vertex 2.3000 1.5000 -0.8660
      endloop
   endfacet
   facet normal 0.7098 0.0612 -0.7017
      outer loop
         vertex 2.8000 0.6470 -2.4148
         vertex 2.8000 0.0000 -2.5000
         vertex 0.3000 0.0000 -5.0000
      endloop
   endfacet
   facet normal 0.7098 0.1225 -0.6937
      outer loop
         vertex 2.8000 0.6470 -2.4148
         vertex 0.3000 0.0000 -5.0000
         vertex 0.3000 1.2941 -4.8296
      endloop
   endfacet
   facet normal 0.0000 0.1739 -0.9848
      outer loop
         vertex 0.0000 0.0000 -5.0000
         vertex 0.0000 1.2941 -4.8296
         vertex 0.3000 1.2941 -4.8296
      endloop
   endfacet
   facet normal 0.0000 0.0869 -0.9962
      outer loop
         vertex 0.0000 0.0000 -5.0000
         vertex 0.3000 1.2941 -4.8296
         vertex 0.3000 0.0000 -5.0000
      endloop
   endfacet
   facet normal 0.0000 0.4228 -0.9062
      outer loop
         vertex 2.8000 0.6470 -2.4148
         vertex 2.8000 1.2500 -2.1651
         vertex 9.5095 1.2500 -2.1651
      endloop
   endfacet
   facet normal 0.0000 0.3418 -0.9398
      outer loop
         vertex 2.8000 0.6470 -2.4148
         vertex 9.5095 1.2500 -2.1651
         vertex 9.5095 0.6470 -2.4148
      endloop
   endfacet
   facet normal 0.7098 0.2978 -0.6383
      outer loop
         vertex 9.5095 0.6470 -2.4148
         vertex 9.5095 1.2500 -2.1651
         vertex 10.0000 1.0048 -1.7403
      endloop
   endfacet
   facet normal 0.7098 0.2408 -0.6620
      outer loop
         vertex 9.5095 0.6470 -2.4148
         vertex 10.0000 1.0048 -1.7403
         vertex 10.0000 0.5201 -1.9410
      endloop
   endfacet
   facet normal -0.9343 -0.1364 0.3294
      outer loop
         vertex 2.3000 0.7500 -1.2990
         vertex 2.3000 0.3882 -1.4489
         vertex 3.1660 0.0000 0.0000
      endloop
   endfacet
   facet normal 0.7098 0.2408 -0.6620
      outer loop
         vertex 2.8000 0.6470 -2.4148
         vertex 0.3000 1.2941 -4.8296
         vertex 0.3000 2.5000 -4.3301
      endloop
   endfacet
   facet normal 0.7098 0.2978 -0.6383
      outer loop
         vertex 2.8000 0.6470 -2.4148
         vertex 0.3000 2.5000 -4.3301
         vertex 2.8000 1.2500 -2.1651
      endloop
   endfacet
   facet normal 0.0000 0.4228 -0.9062
      outer loop
         vertex 0.0000 1.2941 -4.8296
         vertex 0.0000 2.5000 -4.3301
         vertex 0.3000 2.5000 -4.3301
      endloop
   endfacet
   facet normal 0.0000 0.3418 -0.9398
      outer loop
         vertex 0.0000 1.2941 -4.8296
         vertex 0.3000 2.5000 -4.3301
         vertex 0.3000 1.2941 -4.8296
      endloop
   endfacet
   facet normal 0.0000 0.6430 -0.7659
      outer loop
         vertex 2.8000 1.7678 -1.7678
         vertex 9.5095 1.7678 -1.7678
         vertex 9.5095 1.2500 -2.1651
      endloop
   endfacet
   facet normal 0.0000 0.5734 -0.8193
      outer loop
         vertex 2.8000 1.7678 -1.7678
         vertex 9.5095 1.2500 -2.1651
         vertex 2.8000 1.2500 -2.1651
      endloop
   endfacet
   facet normal 0.7098 0.4529 -0.5395
      outer loop
         vertex 9.5095 1.7678 -1.7678
         vertex 10.0000 1.4209 -1.4209
         vertex 10.0000 1.0048 -1.7403
      endloop
   endfacet
   facet normal 0.7098 0.4039 -0.5771
      outer loop
         vertex 9.5095 1.7678 -1.7678
         vertex 10.0000 1.0048 -1.7403
         vertex 9.5095 1.2500 -2.1651
      endloop
   endfacet
   facet normal -1.0000 0.0000 0.0000
      outer loop
         vertex 2.3000 1.5000 -0.8660
         vertex 2.3000 0.7500 -1.2990
         vertex 2.3000 1.0607 -1.0607
      endloop
   endfacet
   facet normal -1.0000 0.0000 0.0000
      outer loop
         vertex 2.3000 1.5000 -0.8660
         vertex 2.3000 1.0607 -1.0607
         vertex 2.3000 1.2990 -0.7500
      endloop
   endfacet
   facet normal -1.0000 0.0000 0.0000
      outer loop
         vertex 2.3000 1.5000 -0.8660
         vertex 2.3000 1.2990 -0.7500
         vertex 2.3000 1.4489 -0.3882
      endloop
   endfacet
   facet normal -1.0000 0.0000 0.0000
      outer loop
         vertex 2.3000 1.5000 -0.8660
         vertex 2.3000 1.4489 -0.3882
         vertex 2.3000 1.5000 -0.0000
      endloop
   endfacet
   facet normal -0.9343 -0.2170 0.2829
      outer loop
         vertex 3.1660 0.0000 0.0000
         vertex 2.3000 1.0607 -1.0607
         vertex 2.3000 0.7500 -1.2990
      endloop
   endfacet
   facet normal 0.7098 0.4039 -0.5771
      outer loop
         vertex 2.8000 1.2500 -2.1651
         vertex 0.3000 2.5000 -4.3301
         vertex 0.3000 3.5355 -3.5355
      endloop
   endfacet
   facet normal 0.7098 0.4529 -0.5395
      outer loop
         vertex 2.8000 1.2500 -2.1651
         vertex 0.3000 3.5355 -3.5355
         vertex 2.8000 1.7678 -1.7678
      endloop
   endfacet
   facet normal 0.0000 0.6430 -0.7659
      outer loop
         vertex 0.0000 2.5000 -4.3301
         vertex 0.0000 3.5355 -3.5355
         vertex 0.3000 3.5355 -3.5355
      endloop
   endfacet
   facet normal 0.0000 0.5734 -0.8193
      outer loop
         vertex 0.0000 2.5000 -4.3301
         vertex 0.3000 3.5355 -3.5355
         vertex 0.3000 2.5000 -4.3301
      endloop
   endfacet
   facet normal 0.0000 0.8193 -0.5734
      outer loop
         vertex 2.8000 2.1651 -1.2500
         vertex 9.5095 2.1651 -1.2500
         vertex 9.5095 1.7678 -1.7678
      endloop
   endfacet
   facet normal 0.0000 0.7659 -0.6430
      outer loop
         vertex 2.8000 2.1651 -1.2500
         vertex 9.5095 1.7678 -1.7678
         vertex 2.8000 1.7678 -1.7678
      endloop
   endfacet
   facet normal 0.7098 0.5395 -0.4529
      outer loop
         vertex 10.0000 1.4209 -1.4209
         vertex 9.5095 1.7678 -1.7678
         vertex 9.5095 2.1651 -1.2500
      endloop
   endfacet
   facet normal 0.7098 0.5771 -0.4039
      outer loop
         vertex 10.0000 1.4209 -1.4209
         vertex 9.5095 2.1651 -1.2500
         vertex 10.0000 1.7403 -1.0048
      endloop
   endfacet
   facet normal -0.9343 -0.2829 0.2170
      outer loop
         vertex 2.3000 1.0607 -1.0607
         vertex 3.1660 0.0000 0.0000
         vertex 2.3000 1.2990 -0.7500
      endloop
   endfacet
   facet normal 0.7098 0.5395 -0.4529
      outer loop
         vertex 2.8000 2.1651 -1.2500
         vertex 2.8000 1.7678 -1.7678
         vertex 0.3000 3.5355 -3.5355
      endloop
   endfacet
   facet normal 0.7098 0.5771 -0.4039
      outer loop
         vertex 2.8000 2.1651 -1.2500
         vertex 0.3000 3.5355 -3.5355
         vertex 0.3000 4.3301 -2.5000
      endloop
   endfacet
   facet normal 0.0000 0.7659 -0.6430
      outer loop
         vertex 0.3000 4.3301 -2.5000
         vertex 0.3000 3.5355 -3.5355
         vertex 0.0000 3.5355 -3.5355
      endloop
   endfacet
   facet normal 0.0000 0.8193 -0.5734
      outer loop
         vertex 0.3000 4.3301 -2.5000
         vertex 0.0000 3.5355 -3.5355
         vertex 0.0000 4.3301 -2.5000
      endloop
   endfacet
   facet normal 0.0000 0.9062 -0.4228
      outer loop
         vertex 9.5095 2.1651 -1.2500
         vertex 2.8000 2.1651 -1.2500
         vertex 2.8000 2.4148 -0.6470
      endloop
   endfacet
   facet normal 0.0000 0.9398 -0.3418
      outer loop
         vertex 9.5095 2.1651 -1.2500
         vertex 2.8000 2.4148 -0.6470
         vertex 9.5095 2.4148 -0.6470
      endloop
   endfacet
   facet normal 0.7098 0.6383 -0.2978
      outer loop
         vertex 10.0000 1.9410 -0.5201
         vertex 10.0000 1.7403 -1.0048
         vertex 9.5095 2.1651 -1.2500
      endloop
   endfacet
   facet normal 0.7098 0.6620 -0.2408
      outer loop
         vertex 10.0000 1.9410 -0.5201
         vertex 9.5095 2.1651 -1.2500
         vertex 9.5095 2.4148 -0.6470
      endloop
   endfacet
   facet normal -0.9343 -0.3294 0.1364
      outer loop
         vertex 2.3000 1.4489 -0.3882
         vertex 2.3000 1.2990 -0.7500
         vertex 3.1660 0.0000 0.0000
      endloop
   endfacet
   facet normal 0.0000 -1.0000 0.0000
      outer loop
         vertex 2.3000 1.5000 -0.0000
         vertex 2.3000 1.5000 0.8660
         vertex 0.0000 1.5000 0.8660
      endloop
   endfacet
   facet normal 0.0000 -1.0000 0.0000
      outer loop
         vertex 2.3000 1.5000 -0.0000
         vertex 0.0000 1.5000 0.8660
         vertex 0.0000 1.5000 -0.8660
      endloop
   endfacet
   facet normal 0.0000 -1.0000 0.0000
      outer loop
         vertex 2.3000 1.5000 -0.0000
         vertex 0.0000 1.5000 -0.8660
         vertex 2.3000 1.5000 -0.8660
      endloop
   endfacet
   facet normal 0.7098 0.6383 -0.2978
      outer loop
         vertex 2.8000 2.4148 -0.6470
         vertex 2.8000 2.1651 -1.2500
         vertex 0.3000 4.3301 -2.5000
      endloop
   endfacet
   facet normal 0.7098 0.6620 -0.2408
      outer loop
         vertex 2.8000 2.4148 -0.6470
         vertex 0.3000 4.3301 -2.5000
         vertex 0.3000 4.8296 -1.2941
      endloop
   endfacet
   facet normal 0.0000 0.9062 -0.4228
      outer loop
         vertex 0.3000 4.8296 -1.2941
         vertex 0.3000 4.3301 -2.5000
         vertex 0.0000 4.3301 -2.5000
      endloop
   endfacet
   facet normal 0.0000 0.9398 -0.3418
      outer loop
         vertex 0.3000 4.8296 -1.2941
         vertex 0.0000 4.3301 -2.5000
         vertex 0.0000 4.8296 -1.2941
      endloop
   endfacet
   facet normal 0.0000 0.9962 -0.0869
      outer loop
         vertex 2.8000 2.4148 -0.6470
         vertex 2.8000 2.5000 0.0000
         vertex 9.5095 2.5000 0.0000
      endloop
   endfacet
   facet normal 0.0000 0.9848 -0.1739
      outer loop
         vertex 2.8000 2.4148 -0.6470
         vertex 9.5095 2.5000 0.0000
         vertex 9.5095 2.4148 -0.6470
      endloop
   endfacet
   facet normal 0.7098 0.7017 -0.0612
      outer loop
         vertex 9.5095 2.4148 -0.6470
         vertex 9.5095 2.5000 0.0000
         vertex 10.0000 2.0095 0.0000
      endloop
   endfacet
   facet normal 0.7098 0.6937 -0.1225
      outer loop
         vertex 9.5095 2.4148 -0.6470
         vertex 10.0000 2.0095 0.0000
         vertex 10.0000 1.9410 -0.5201
      endloop
   endfacet
   facet normal -0.9343 -0.3535 0.0465
      outer loop
         vertex 2.3000 1.4489 -0.3882
         vertex 3.1660 0.0000 0.0000
         vertex 2.3000 1.5000 -0.0000
      endloop
   endfacet
   facet normal 0.7098 0.6937 -0.1225
      outer loop
         vertex 2.8000 2.4148 -0.6470
         vertex 0.3000 4.8296 -1.2941
         vertex 0.3000 5.0000 0.0000
      endloop
   endfacet
   facet normal 0.7098 0.7017 -0.0612
      outer loop
         vertex 2.8000 2.4148 -0.6470
         vertex 0.3000 5.0000 0.0000
         vertex 2.8000 2.5000 0.0000
      endloop
   endfacet
   facet normal 0.0000 0.9962 -0.0869
      outer loop
         vertex 0.0000 4.8296 -1.2941
         vertex 0.0000 5.0000 0.0000
         vertex 0.3000 5.0000 0.0000
      endloop
   endfacet
   facet normal 0.0000 0.9848 -0.1739
      outer loop
         vertex 0.0000 4.8296 -1.2941
         vertex 0.3000 5.0000 0.0000
         vertex 0.3000 4.8296 -1.2941
      endloop
   endfacet
   facet normal 0.0000 0.9962 0.0869
      outer loop
         vertex 9.5095 2.5000 0.0000
         vertex 2.8000 2.5000 0.0000
         vertex 2.8000 2.4148 0.6470
      endloop
   endfacet
   facet normal 0.0000 0.9848 0.1739
      outer loop
         vertex 9.5095 2.5000 0.0000
         vertex 2.8000 2.4148 0.6470
         vertex 9.5095 2.4148 0.6470
      endloop
   endfacet
   facet normal 0.7098 0.7017 0.0612
      outer loop
         vertex 10.0000 1.9410 0.5201
         vertex 10.0000 2.0095 0.0000
         vertex 9.5095 2.5000 0.0000
      endloop
   endfacet
   facet normal 0.7098 0.6937 0.1225
      outer loop
         vertex 10.0000 1.9410 0.5201
         vertex 9.5095 2.5000 0.0000
         vertex 9.5095 2.4148 0.6470
      endloop
   endfacet
   facet normal -1.0000 0.0000 0.0000
      outer loop
         vertex 2.3000 1.5000 0.8660
         vertex 2.3000 1.5000 -0.0000
         vertex 2.3000 1.4489 0.3882
      endloop
   endfacet
   facet normal -1.0000 0.0000 0.0000
      outer loop
         vertex 2.3000 1.5000 0.8660
         vertex 2.3000 1.4489 0.3882
         vertex 2.3000 1.2990 0.7500
      endloop
   endfacet
   facet normal -1.0000 0.0000 0.0000
      outer loop
         vertex 2.3000 1.5000 0.8660
         vertex 2.3000 1.2990 0.7500
         vertex 2.3000 1.0607 1.0607
      endloop
   endfacet
   facet normal -1.0000 0.0000 0.0000
      outer loop
         vertex 2.3000 1.5000 0.8660
         vertex 2.3000 1.0607 1.0607
         vertex 2.3000 0.7500 1.2990
      endloop
   endfacet
   facet normal -0.9343 -0.3535 -0.0465
      outer loop
         vertex 3.1660 0.0000 0.0000
         vertex 2.3000 1.4489 0.3882
         vertex 2.3000 1.5000 -0.0000
      endloop
   endfacet
   facet normal 0.7098 0.7017 0.0612
      outer loop
         vertex 2.8000 2.5000 0.0000
         vertex 0.3000 5.0000 0.0000
         vertex 0.3000 4.8296 1.2941
      endloop
   endfacet
   facet normal 0.7098 0.6937 0.1225
      outer loop
         vertex 2.8000 2.5000 0.0000
         vertex 0.3000 4.8296 1.2941
         vertex 2.8000 2.4148 0.6470
      endloop
   endfacet
   facet normal 0.0000 0.9962 0.0869
      outer loop
         vertex 0.3000 4.8296 1.2941
         vertex 0.3000 5.0000 0.0000
         vertex 0.0000 5.0000 0.0000
      endloop
   endfacet
   facet normal 0.0000 0.9848 0.1739
      outer loop
         vertex 0.3000 4.8296 1.2941
         vertex 0.0000 5.0000 0.0000
         vertex 0.0000 4.8296 1.2941
      endloop
   endfacet
   facet normal 0.0000 0.9398 0.3418
      outer loop
         vertex 9.5095 2.4148 0.6470
         vertex 2.8000 2.4148 0.6470
         vertex 2.8000 2.1651 1.2500
      endloop
   endfacet
   facet normal 0.0000 0.9062 0.4228
      outer loop
         vertex 9.5095 2.4148 0.6470
         vertex 2.8000 2.1651 1.2500
         vertex 9.5095 2.1651 1.2500
      endloop
   endfacet
   facet normal 0.7098 0.6620 0.2408
      outer loop
         vertex 10.0000 1.9410 0.5201
         vertex 9.5095 2.4148 0.6470
         vertex 9.5095 2.1651 1.2500
      endloop
   endfacet
   facet normal 0.7098 0.6383 0.2978
      outer loop
         vertex 10.0000 1.9410 0.5201
         vertex 9.5095 2.1651 1.2500
         vertex 10.0000 1.7403 1.0048
      endloop
   endfacet
   facet normal -0.9343 -0.3294 -0.1364
      outer loop
         vertex 2.3000 1.4489 0.3882
         vertex 3.1660 0.0000 0.0000
         vertex 2.3000 1.2990 0.7500
      endloop
   endfacet
   facet normal 0.7098 0.6383 0.2978
      outer loop
         vertex 0.3000 4.8296 1.2941
         vertex 0.3000 4.3301 2.5000
         vertex 2.8000 2.1651 1.2500
      endloop
   endfacet
   facet normal 0.7098 0.6620 0.2408
      outer loop
         vertex 0.3000 4.8296 1.2941
         vertex 2.8000 2.1651 1.2500
         vertex 2.8000 2.4148 0.6470
      endloop
   endfacet
   facet normal 0.0000 0.9398 0.3418
      outer loop
         vertex 0.3000 4.8296 1.2941
         vertex 0.0000 4.8296 1.2941
         vertex 0.0000 4.3301 2.5000
      endloop
   endfacet
   facet normal 0.0000 0.9062 0.4228
      outer loop
         vertex 0.3000 4.8296 1.2941
         vertex 0.0000 4.3301 2.5000
         vertex 0.3000 4.3301 2.5000
      endloop
   endfacet
   facet normal 0.0000 0.8193 0.5734
      outer loop
         vertex 9.5095 1.7678 1.7678
         vertex 9.5095 2.1651 1.2500
         vertex 2.8000 2.1651 1.2500
      endloop
   endfacet
   facet normal 0.0000 0.7659 0.6430
      outer loop
         vertex 9.5095 1.7678 1.7678
         vertex 2.8000 2.1651 1.2500
         vertex 2.8000 1.7678 1.7678
      endloop
   endfacet
   facet normal 0.7098 0.5395 0.4529
      outer loop
         vertex 9.5095 2.1651 1.2500
         vertex 9.5095 1.7678 1.7678
         vertex 10.0000 1.4209 1.4209
      endloop
   endfacet
   facet normal 0.7098 0.5771 0.4039
      outer loop
         vertex 9.5095 2.1651 1.2500
         vertex 10.0000 1.4209 1.4209
         vertex 10.0000 1.7403 1.0048
      endloop
   endfacet
   facet normal -0.9343 -0.2829 -0.2170
      outer loop
         vertex 3.1660 0.0000 0.0000
         vertex 2.3000 1.0607 1.0607
         vertex 2.3000 1.2990 0.7500
      endloop
   endfacet
   facet normal 0.0000 -0.5000 -0.8660
      outer loop
         vertex 2.3000 0.7500 1.2990
         vertex 2.3000 0.0000 1.7321
         vertex 0.0000 -0.0000 1.7321
      endloop
   endfacet
   facet normal 0.0000 -0.5000 -0.8660
      outer loop
         vertex 2.3000 0.7500 1.2990
         vertex 0.0000 -0.0000 1.7321
         vertex 0.0000 1.5000 0.8660
      endloop
   endfacet
   facet normal 0.0000 -0.5000 -0.8660
      outer loop
         vertex 2.3000 0.7500 1.2990
         vertex 0.0000 1.5000 0.8660
         vertex 2.3000 1.5000 0.8660
      endloop
   endfacet
   facet normal 0.7098 0.5771 0.4039
      outer loop
         vertex 2.8000 1.7678 1.7678
         vertex 2.8000 2.1651 1.2500
         vertex 0.3000 4.3301 2.5000
      endloop
   endfacet
   facet normal 0.7098 0.5395 0.4529
      outer loop
         vertex 2.8000 1.7678 1.7678
         vertex 0.3000 4.3301 2.5000
         vertex 0.3000 3.5355 3.5355
      endloop
   endfacet
   facet normal 0.0000 0.7659 0.6430
      outer loop
         vertex 0.0000 3.5355 3.5355
         vertex 0.3000 3.5355 3.5355
         vertex 0.3000 4.3301 2.5000
      endloop
   endfacet
   facet normal 0.0000 0.8193 0.5734
      outer loop
         vertex 0.0000 3.5355 3.5355
         vertex 0.3000 4.3301 2.5000
         vertex 0.0000 4.3301 2.5000
      endloop
   endfacet
   facet normal 0.0000 0.6430 0.7659
      outer loop
         vertex 9.5095 1.2500 2.1651
         vertex 9.5095 1.7678 1.7678
         vertex 2.8000 1.7678 1.7678
      endloop
   endfacet
   facet normal 0.0000 0.5734 0.8193
      outer loop
         vertex 9.5095 1.2500 2.1651
         vertex 2.8000 1.7678 1.7678
         vertex 2.8000 1.2500 2.1651
      endloop
   endfacet
   facet normal 0.7098 0.4529 0.5395
      outer loop
         vertex 10.0000 1.0048 1.7403
         vertex 10.0000 1.4209 1.4209
         vertex 9.5095 1.7678 1.7678
      endloop
   endfacet
   facet normal 0.7098 0.4039 0.5771
      outer loop
         vertex 10.0000 1.0048 1.7403
         vertex 9.5095 1.7678 1.7678
         vertex 9.5095 1.2500 2.1651
      endloop
   endfacet
   facet normal -0.9343 -0.2170 -0.2829
      outer loop
         vertex 2.3000 0.7500 1.2990
         vertex 2.3000 1.0607 1.0607
         vertex 3.1660 0.0000 0.0000
      endloop
   endfacet
   facet normal 0.7098 0.4039 0.5771
      outer loop
         vertex 0.3000 2.5000 4.3301
         vertex 2.8000 1.2500 2.1651
         vertex 2.8000 1.7678 1.7678
      endloop
   endfacet
   facet normal 0.7098 0.4529 0.5395
      outer loop
         vertex 0.3000 2.5000 4.3301
         vertex 2.8000 1.7678 1.7678
         vertex 0.3000 3.5355 3.5355
      endloop
   endfacet
   facet normal 0.0000 0.6430 0.7659
      outer loop
         vertex 0.3000 3.5355 3.5355
         vertex 0.0000 3.5355 3.5355
         vertex 0.0000 2.5000 4.3301
      endloop
   endfacet
   facet normal 0.0000 0.5734 0.8193
      outer loop
         vertex 0.3000 3.5355 3.5355
         vertex 0.0000 2.5000 4.3301
         vertex 0.3000 2.5000 4.3301
      endloop
   endfacet
   facet normal 0.0000 0.3418 0.9398
      outer loop
         vertex 2.8000 0.6470 2.4148
         vertex 9.5095 0.6470 2.4148
         vertex 9.5095 1.2500 2.1651
      endloop
   endfacet
   facet normal 0.0000 0.4228 0.9062
      outer loop
         vertex 2.8000 0.6470 2.4148
         vertex 9.5095 1.2500 2.1651
         vertex 2.8000 1.2500 2.1651
      endloop
   endfacet
   facet normal 0.7098 0.2978 0.6383
      outer loop
         vertex 10.0000 0.5201 1.9410
         vertex 10.0000 1.0048 1.7403
         vertex 9.5095 1.2500 2.1651
      endloop
   endfacet
   facet normal 0.7098 0.2408 0.6620
      outer loop
         vertex 10.0000 0.5201 1.9410
         vertex 9.5095 1.2500 2.1651
         vertex 9.5095 0.6470 2.4148
      endloop
   endfacet
   facet normal -1.0000 0.0000 0.0000
      outer loop
         vertex 2.3000 0.0000 1.7321
         vertex 2.3000 0.7500 1.2990
         vertex 2.3000 0.3882 1.4489
      endloop
   endfacet
   facet normal -1.0000 0.0000 0.0000
      outer loop
         vertex 2.3000 0.0000 1.7321
         vertex 2.3000 0.3882 1.4489
         vertex 2.3000 0.0000 1.5000
      endloop
   endfacet
   facet normal -1.0000 0.0000 0.0000
      outer loop
         vertex 2.3000 0.0000 1.7321
         vertex 2.3000 0.0000 1.5000
         vertex 2.3000 -0.3882 1.4489
      endloop
   endfacet
   facet normal -1.0000 0.0000 0.0000
      outer loop
         vertex 2.3000 0.0000 1.7321
         vertex 2.3000 -0.3882 1.4489
         vertex 2.3000 -0.7500 1.2990
      endloop
   endfacet
   facet normal -0.9343 -0.1364 -0.3294
      outer loop
         vertex 3.1660 0.0000 0.0000
         vertex 2.3000 0.3882 1.4489
         vertex 2.3000 0.7500 1.2990
      endloop
   endfacet
   facet normal 0.7098 0.2978 0.6383
      outer loop
         vertex 2.8000 1.2500 2.1651
         vertex 0.3000 2.5000 4.3301
         vertex 0.3000 1.2941 4.8296
      endloop
   endfacet
   facet normal 0.7098 0.2408 0.6620
      outer loop
         vertex 2.8000 1.2500 2.1651
         vertex 0.3000 1.2941 4.8296
         vertex 2.8000 0.6470 2.4148
      endloop
   endfacet
   facet normal 0.0000 0.4228 0.9062
      outer loop
         vertex 0.3000 1.2941 4.8296
         vertex 0.3000 2.5000 4.3301
         vertex 0.0000 2.5000 4.3301
      endloop
   endfacet
   facet normal 0.0000 0.3418 0.9398
      outer loop
         vertex 0.3000 1.2941 4.8296
         vertex 0.0000 2.5000 4.3301
         vertex 0.0000 1.2941 4.8296
      endloop
   endfacet
   facet normal 0.0000 0.1739 0.9848
      outer loop
         vertex 9.5095 0.6470 2.4148
         vertex 2.8000 0.6470 2.4148
         vertex 2.8000 -0.0000 2.5000
      endloop
   endfacet
   facet normal 0.0000 0.0869 0.9962
      outer loop
         vertex 9.5095 0.6470 2.4148
         vertex 2.8000 -0.0000 2.5000
         vertex 9.5095 -0.0000 2.5000
      endloop
   endfacet
   facet normal 0.7098 0.1225 0.6937
      outer loop
         vertex 10.0000 0.5201 1.9410
         vertex 9.5095 0.6470 2.4148
         vertex 9.5095 -0.0000 2.5000
      endloop
   endfacet
   facet normal 0.7098 0.0612 0.7017
      outer loop
         vertex 10.0000 0.5201 1.9410
         vertex 9.5095 -0.0000 2.5000
         vertex 10.0000 -0.0000 2.0095
      endloop
   endfacet
   facet normal -0.9343 -0.0465 -0.3535
      outer loop
         vertex 2.3000 0.0000 1.5000
         vertex 2.3000 0.3882 1.4489
         vertex 3.1660 0.0000 0.0000
      endloop
   endfacet
   facet normal 0.7098 0.0612 0.7017
      outer loop
         vertex 0.3000 1.2941 4.8296
         vertex 0.3000 -0.0000 5.0000
         vertex 2.8000 -0.0000 2.5000
      endloop
   endfacet
   facet normal 0.7098 0.1225 0.6937
      outer loop
         vertex 0.3000 1.2941 4.8296
         vertex 2.8000 -0.0000 2.5000
         vertex 2.8000 0.6470 2.4148
      endloop
   endfacet
   facet normal 0.0000 0.1739 0.9848
      outer loop
         vertex 0.3000 -0.0000 5.0000
         vertex 0.3000 1.2941 4.8296
         vertex 0.0000 1.2941 4.8296
      endloop
   endfacet
   facet normal 0.0000 0.0869 0.9962
      outer loop
         vertex 0.3000 -0.0000 5.0000
         vertex 0.0000 1.2941 4.8296
         vertex 0.0000 -0.0000 5.0000
      endloop
   endfacet
   facet normal 0.0000 -0.0869 0.9962
      outer loop
         vertex 9.5095 -0.6470 2.4148
         vertex 9.5095 -0.0000 2.5000
         vertex 2.8000 -0.0000 2.5000
      endloop
   endfacet
   facet normal 0.0000 -0.1739 0.9848
      outer loop
         vertex 9.5095 -0.6470 2.4148
         vertex 2.8000 -0.0000 2.5000
         vertex 2.8000 -0.6470 2.4148
      endloop
   endfacet
   facet normal 0.7098 -0.0612 0.7017
      outer loop
         vertex 10.0000 -0.5201 1.9410
         vertex 10.0000 -0.0000 2.0095
         vertex 9.5095 -0.0000 2.5000
      endloop
   endfacet
   facet normal 0.7098 -0.1225 0.6937
      outer loop
         vertex 10.0000 -0.5201 1.9410
         vertex 9.5095 -0.0000 2.5000
         vertex 9.5095 -0.6470 2.4148
      endloop
   endfacet
   facet normal -0.9343 0.0465 -0.3535
      outer loop
         vertex 3.1660 0.0000 0.0000
         vertex 2.3000 -0.3882 1.4489
         vertex 2.3000 0.0000 1.5000
      endloop
   endfacet
   facet normal 0.0000 0.5000 -0.8660
      outer loop
         vertex 0.0000 -1.5000 0.8660
         vertex 0.0000 -0.0000 1.7321
         vertex 2.3000 0.0000 1.7321
      endloop
   endfacet
   facet normal 0.0000 0.5000 -0.8660
      outer loop
         vertex 0.0000 -1.5000 0.8660
         vertex 2.3000 0.0000 1.7321
         vertex 2.3000 -0.7500 1.2990
      endloop
   endfacet
   facet normal 0.0000 0.5000 -0.8660
      outer loop
         vertex 0.0000 -1.5000 0.8660
         vertex 2.3000 -0.7500 1.2990
         vertex 2.3000 -1.5000 0.8660
      endloop
   endfacet
   facet normal 0.7098 -0.0612 0.7017
      outer loop
         vertex 2.8000 -0.0000 2.5000
         vertex 0.3000 -0.0000 5.0000
         vertex 0.3000 -1.2941 4.8296
      endloop
   endfacet
   facet normal 0.7098 -0.1225 0.6937
      outer loop
         vertex 2.8000 -0.0000 2.5000
         vertex 0.3000 -1.2941 4.8296
         vertex 2.8000 -0.6470 2.4148
      endloop
   endfacet
   facet normal 0.0000 -0.0869 0.9962
      outer loop
         vertex 0.3000 -1.2941 4.8296
         vertex 0.3000 -0.0000 5.0000
         vertex 0.0000 -0.0000 5.0000
      endloop
   endfacet
   facet normal 0.0000 -0.1739 0.9848
      outer loop
         vertex 0.3000 -1.2941 4.8296
         vertex 0.0000 -0.0000 5.0000
         vertex 0.0000 -1.2941 4.8296
      endloop
   endfacet
   facet normal 0.0000 -0.4228 0.9062
      outer loop
         vertex 2.8000 -1.2500 2.1651
         vertex 9.5095 -1.2500 2.1651
         vertex 9.5095 -0.6470 2.4148
      endloop
   endfacet
   facet normal 0.0000 -0.3418 0.9398
      outer loop
         vertex 2.8000 -1.2500 2.1651
         vertex 9.5095 -0.6470 2.4148
         vertex 2.8000 -0.6470 2.4148
      endloop
   endfacet
   facet normal 0.7098 -0.2978 0.6383
      outer loop
         vertex 9.5095 -1.2500 2.1651
         vertex 10.0000 -1.0048 1.7403
         vertex 10.0000 -0.5201 1.9410
      endloop
   endfacet
   facet normal 0.7098 -0.2408 0.6620
      outer loop
         vertex 9.5095 -1.2500 2.1651
         vertex 10.0000 -0.5201 1.9410
         vertex 9.5095 -0.6470 2.4148
      endloop
   endfacet
   facet normal -0.9343 0.1364 -0.3294
      outer loop
         vertex 3.1660 0.0000 0.0000
         vertex 2.3000 -0.7500 1.2990
         vertex 2.3000 -0.3882 1.4489
      endloop
   endfacet
   facet normal 0.7098 -0.2978 0.6383
      outer loop
         vertex 0.3000 -2.5000 4.3301
         vertex 2.8000 -1.2500 2.1651
         vertex 2.8000 -0.6470 2.4148
      endloop
   endfacet
   facet normal 0.7098 -0.2408 0.6620
      outer loop
         vertex 0.3000 -2.5000 4.3301
         vertex 2.8000 -0.6470 2.4148
         vertex 0.3000 -1.2941 4.8296
      endloop
   endfacet
   facet normal 0.0000 -0.4228 0.9062
      outer loop
         vertex 0.0000 -1.2941 4.8296
         vertex 0.0000 -2.5000 4.3301
         vertex 0.3000 -2.5000 4.3301
      endloop
   endfacet
   facet normal 0.0000 -0.3418 0.9398
      outer loop
         vertex 0.0000 -1.2941 4.8296
         vertex 0.3000 -2.5000 4.3301
         vertex 0.3000 -1.2941 4.8296
      endloop
   endfacet
   facet normal 0.0000 -0.6430 0.7659
      outer loop
         vertex 2.8000 -1.7678 1.7678
         vertex 9.5095 -1.7678 1.7678
         vertex 9.5095 -1.2500 2.1651
      endloop
   endfacet
   facet normal 0.0000 -0.5734 0.8193
      outer loop
         vertex 2.8000 -1.7678 1.7678
         vertex 9.5095 -1.2500 2.1651
         vertex 2.8000 -1.2500 2.1651
      endloop
   endfacet
   facet normal 0.7098 -0.4039 0.5771
      outer loop
         vertex 10.0000 -1.4209 1.4209
         vertex 10.0000 -1.0048 1.7403
         vertex 9.5095 -1.2500 2.1651
      endloop
   endfacet
   facet normal 0.7098 -0.4529 0.5395
      outer loop
         vertex 10.0000 -1.4209 1.4209
         vertex 9.5095 -1.2500 2.1651
         vertex 9.5095 -1.7678 1.7678
      endloop
   endfacet
   facet normal -1.0000 0.0000 0.0000
      outer loop
         vertex 2.3000 -1.5000 0.8660
         vertex 2.3000 -0.7500 1.2990
         vertex 2.3000 -1.0607 1.0607
      endloop
   endfacet
   facet normal -1.0000 0.0000 0.0000
      outer loop
         vertex 2.3000 -1.5000 0.8660
         vertex 2.3000 -1.0607 1.0607
         vertex 2.3000 -1.2990 0.7500
      endloop
   endfacet
   facet normal -1.0000 0.0000 0.0000
      outer loop
         vertex 2.3000 -1.5000 0.8660
         vertex 2.3000 -1.2990 0.7500
         vertex 2.3000 -1.4489 0.3882
      endloop
   endfacet
   facet normal -1.0000 0.0000 0.0000
      outer loop
         vertex 2.3000 -1.5000 0.8660
         vertex 2.3000 -1.4489 0.3882
         vertex 2.3000 -1.5000 0.0000
      endloop
   endfacet
   facet normal -0.9343 0.2170 -0.2829
      outer loop
         vertex 3.1660 0.0000 0.0000
         vertex 2.3000 -1.0607 1.0607
         vertex 2.3000 -0.7500 1.2990
      endloop
   endfacet
   facet normal 0.7098 -0.4529 0.5395
      outer loop
         vertex 0.3000 -2.5000 4.3301
         vertex 0.3000 -3.5355 3.5355
         vertex 2.8000 -1.7678 1.7678
      endloop
   endfacet
   facet normal 0.7098 -0.4039 0.5771
      outer loop
         vertex 0.3000 -2.5000 4.3301
         vertex 2.8000 -1.7678 1.7678
         vertex 2.8000 -1.2500 2.1651
      endloop
   endfacet
   facet normal 0.0000 -0.6430 0.7659
      outer loop
         vertex 0.0000 -2.5000 4.3301
         vertex 0.0000 -3.5355 3.5355
         vertex 0.3000 -3.5355 3.5355
      endloop
   endfacet
   facet normal 0.0000 -0.5734 0.8193
      outer loop
         vertex 0.0000 -2.5000 4.3301
         vertex 0.3000 -3.5355 3.5355
         vertex 0.3000 -2.5000 4.3301
      endloop
   endfacet
   facet normal 0.0000 -0.8193 0.5734
      outer loop
         vertex 2.8000 -1.7678 1.7678
         vertex 2.8000 -2.1651 1.2500
         vertex 9.5095 -2.1651 1.2500
      endloop
   endfacet
   facet normal 0.0000 -0.7659 0.6430
      outer loop
         vertex 2.8000 -1.7678 1.7678
         vertex 9.5095 -2.1651 1.2500
         vertex 9.5095 -1.7678 1.7678
      endloop
   endfacet
   facet normal 0.7098 -0.5395 0.4529
      outer loop
         vertex 10.0000 -1.4209 1.4209
         vertex 9.5095 -1.7678 1.7678
         vertex 9.5095 -2.1651 1.2500
      endloop
   endfacet
   facet normal 0.7098 -0.5771 0.4039
      outer loop
         vertex 10.0000 -1.4209 1.4209
         vertex 9.5095 -2.1651 1.2500
         vertex 10.0000 -1.7403 1.0048
      endloop
   endfacet
   facet normal -0.9343 0.2829 -0.2170
      outer loop
         vertex 2.3000 -1.0607 1.0607
         vertex 3.1660 0.0000 0.0000
         vertex 2.3000 -1.2990 0.7500
      endloop
   endfacet
   facet normal 0.7098 -0.5771 0.4039
      outer loop
         vertex 0.3000 -3.5355 3.5355
         vertex 0.3000 -4.3301 2.5000
         vertex 2.8000 -2.1651 1.2500
      endloop
   endfacet
   facet normal 0.7098 -0.5395 0.4529
      outer loop
         vertex 0.3000 -3.5355 3.5355
         vertex 2.8000 -2.1651 1.2500
         vertex 2.8000 -1.7678 1.7678
      endloop
   endfacet
   facet normal 0.0000 -0.8193 0.5734
      outer loop
         vertex 0.0000 -3.5355 3.5355
         vertex 0.0000 -4.3301 2.5000
         vertex 0.3000 -4.3301 2.5000
      endloop
   endfacet
   facet normal 0.0000 -0.7659 0.6430
      outer loop
         vertex 0.0000 -3.5355 3.5355
         vertex 0.3000 -4.3301 2.5000
         vertex 0.3000 -3.5355 3.5355
      endloop
   endfacet
   facet normal 0.0000 -0.9398 0.3418
      outer loop
         vertex 2.8000 -2.4148 0.6470
         vertex 9.5095 -2.4148 0.6470
         vertex 9.5095 -2.1651 1.2500
      endloop
   endfacet
   facet normal 0.0000 -0.9062 0.4228
      outer loop
         vertex 2.8000 -2.4148 0.6470
         vertex 9.5095 -2.1651 1.2500
         vertex 2.8000 -2.1651 1.2500
      endloop
   endfacet
   facet normal 0.7098 -0.6383 0.2978
      outer loop
         vertex 10.0000 -1.9410 0.5201
         vertex 10.0000 -1.7403 1.0048
         vertex 9.5095 -2.1651 1.2500
      endloop
   endfacet
   facet normal 0.7098 -0.6620 0.2408
      outer loop
         vertex 10.0000 -1.9410 0.5201
         vertex 9.5095 -2.1651 1.2500
         vertex 9.5095 -2.4148 0.6470
      endloop
   endfacet
   facet normal -0.9343 0.3294 -0.1364
      outer loop
         vertex 2.3000 -1.2990 0.7500
         vertex 3.1660 0.0000 0.0000
         vertex 2.3000 -1.4489 0.3882
      endloop
   endfacet
   facet normal 0.0000 1.0000 0.0000
      outer loop
         vertex 0.0000 -1.5000 0.8660
         vertex 2.3000 -1.5000 0.8660
         vertex 2.3000 -1.5000 0.0000
      endloop
   endfacet
   facet normal 0.0000 1.0000 0.0000
      outer loop
         vertex 0.0000 -1.5000 0.8660
         vertex 2.3000 -1.5000 0.0000
         vertex 2.3000 -1.5000 -0.8660
      endloop
   endfacet
   facet normal 0.0000 1.0000 0.0000
      outer loop
         vertex 0.0000 -1.5000 0.8660
         vertex 2.3000 -1.5000 -0.8660
         vertex 0.0000 -1.5000 -0.8660
      endloop
   endfacet
   facet normal 0.7098 -0.6620 0.2408
      outer loop
         vertex 0.3000 -4.3301 2.5000
         vertex 0.3000 -4.8296 1.2941
         vertex 2.8000 -2.4148 0.6470
      endloop
   endfacet
   facet normal 0.7098 -0.6383 0.2978
      outer loop
         vertex 0.3000 -4.3301 2.5000
         vertex 2.8000 -2.4148 0.6470
         vertex 2.8000 -2.1651 1.2500
      endloop
   endfacet
   facet normal 0.0000 -0.9398 0.3418
      outer loop
         vertex 0.0000 -4.8296 1.2941
         vertex 0.3000 -4.8296 1.2941
         vertex 0.3000 -4.3301 2.5000
      endloop
   endfacet
   facet normal 0.0000 -0.9062 0.4228
      outer loop
         vertex 0.0000 -4.8296 1.2941
         vertex 0.3000 -4.3301 2.5000
         vertex 0.0000 -4.3301 2.5000
      endloop
   endfacet
   facet normal 0.0000 -0.9962 0.0869
      outer loop
         vertex 2.8000 -2.5000 -0.0000
         vertex 9.5095 -2.5000 -0.0000
         vertex 9.5095 -2.4148 0.6470
      endloop
   endfacet
   facet normal 0.0000 -0.9848 0.1739
      outer loop
         vertex 2.8000 -2.5000 -0.0000
         vertex 9.5095 -2.4148 0.6470
         vertex 2.8000 -2.4148 0.6470
      endloop
   endfacet
   facet normal 0.7098 -0.6937 0.1225
      outer loop
         vertex 10.0000 -2.0095 -0.0000
         vertex 10.0000 -1.9410 0.5201
         vertex 9.5095 -2.4148 0.6470
      endloop
   endfacet
   facet normal 0.7098 -0.7017 0.0612
      outer loop
         vertex 10.0000 -2.0095 -0.0000
         vertex 9.5095 -2.4148 0.6470
         vertex 9.5095 -2.5000 -0.0000
      endloop
   endfacet
   facet normal -0.9343 0.3535 -0.0465
      outer loop
         vertex 2.3000 -1.5000 0.0000
         vertex 2.3000 -1.4489 0.3882
         vertex 3.1660 0.0000 0.0000
      endloop
   endfacet
   facet normal 0.7098 -0.7017 0.0612
      outer loop
         vertex 0.3000 -4.8296 1.2941
         vertex 0.3000 -5.0000 -0.0000
         vertex 2.8000 -2.5000 -0.0000
      endloop
   endfacet
   facet normal 0.7098 -0.6937 0.1225
      outer loop
         vertex 0.3000 -4.8296 1.2941
         vertex 2.8000 -2.5000 -0.0000
         vertex 2.8000 -2.4148 0.6470
      endloop
   endfacet
   facet normal 0.0000 -0.9962 0.0869
      outer loop
         vertex 0.0000 -4.8296 1.2941
         vertex 0.0000 -5.0000 -0.0000
         vertex 0.3000 -5.0000 -0.0000
      endloop
   endfacet
   facet normal 0.0000 -0.9848 0.1739
      outer loop
         vertex 0.0000 -4.8296 1.2941
         vertex 0.3000 -5.0000 -0.0000
         vertex 0.3000 -4.8296 1.2941
      endloop
   endfacet
   facet normal 0.0000 -0.9848 -0.1739
      outer loop
         vertex 2.8000 -2.5000 -0.0000
         vertex 2.8000 -2.4148 -0.6470
         vertex 9.5095 -2.4148 -0.6470
      endloop
   endfacet
   facet normal 0.0000 -0.9962 -0.0869
      outer loop
         vertex 2.8000 -2.5000 -0.0000
         vertex 9.5095 -2.4148 -0.6470
         vertex 9.5095 -2.5000 -0.0000
      endloop
   endfacet
   facet normal 0.7098 -0.7017 -0.0612
      outer loop
         vertex 10.0000 -1.9410 -0.5201
         vertex 10.0000 -2.0095 -0.0000
         vertex 9.5095 -2.5000 -0.0000
      endloop
   endfacet
   facet normal 0.7098 -0.6937 -0.1225
      outer loop
         vertex 10.0000 -1.9410 -0.5201
         vertex 9.5095 -2.5000 -0.0000
         vertex 9.5095 -2.4148 -0.6470
      endloop
   endfacet
   facet normal -1.0000 0.0000 0.0000
      outer loop
         vertex 2.3000 -1.5000 -0.8660
         vertex 2.3000 -1.5000 0.0000
         vertex 2.3000 -1.4489 -0.3882
      endloop
   endfacet
   facet normal -1.0000 0.0000 0.0000
      outer loop
         vertex 2.3000 -1.5000 -0.8660
         vertex 2.3000 -1.4489 -0.3882
         vertex 2.3000 -1.2990 -0.7500
      endloop
   endfacet
   facet normal -1.0000 0.0000 0.0000
      outer loop
         vertex 2.3000 -1.5000 -0.8660
         vertex 2.3000 -1.2990 -0.7500
         vertex 2.3000 -1.0607 -1.0607
      endloop
   endfacet
   facet normal -1.0000 0.0000 0.0000
      outer loop
         vertex 2.3000 -1.5000 -0.8660
         vertex 2.3000 -1.0607 -1.0607
         vertex 2.3000 -0.7500 -1.2990
      endloop
   endfacet
   facet normal -0.9343 0.3535 0.0465
      outer loop
         vertex 3.1660 0.0000 0.0000
         vertex 2.3000 -1.4489 -0.3882
         vertex 2.3000 -1.5000 0.0000
      endloop
   endfacet
   facet normal 0.7098 -0.7017 -0.0612
      outer loop
         vertex 2.8000 -2.5000 -0.0000
         vertex 0.3000 -5.0000 -0.0000
         vertex 0.3000 -4.8296 -1.2941
      endloop
   endfacet
   facet normal 0.7098 -0.6937 -0.1225
      outer loop
         vertex 2.8000 -2.5000 -0.0000
         vertex 0.3000 -4.8296 -1.2941
         vertex 2.8000 -2.4148 -0.6470
      endloop
   endfacet
   facet normal 0.0000 -0.9848 -0.1739
      outer loop
         vertex 0.0000 -5.0000 -0.0000
         vertex 0.0000 -4.8296 -1.2941
         vertex 0.3000 -4.8296 -1.2941
      endloop
   endfacet
   facet normal 0.0000 -0.9962 -0.0869
      outer loop
         vertex 0.0000 -5.0000 -0.0000
         vertex 0.3000 -4.8296 -1.2941
         vertex 0.3000 -5.0000 -0.0000
      endloop
   endfacet
   facet normal 0.0000 -0.9062 -0.4228
      outer loop
         vertex 2.8000 -2.4148 -0.6470
         vertex 2.8000 -2.1651 -1.2500
         vertex 9.5095 -2.1651 -1.2500
      endloop
   endfacet
   facet normal 0.0000 -0.9398 -0.3418
      outer loop
         vertex 2.8000 -2.4148 -0.6470
         vertex 9.5095 -2.1651 -1.2500
         vertex 9.5095 -2.4148 -0.6470
      endloop
   endfacet
   facet normal 0.7098 -0.6383 -0.2978
      outer loop
         vertex 9.5095 -2.1651 -1.2500
         vertex 10.0000 -1.7403 -1.0048
         vertex 10.0000 -1.9410 -0.5201
      endloop
   endfacet
   facet normal 0.7098 -0.6620 -0.2408
      outer loop
         vertex 9.5095 -2.1651 -1.2500
         vertex 10.0000 -1.9410 -0.5201
         vertex 9.5095 -2.4148 -0.6470
      endloop
   endfacet
   facet normal -0.9343 0.3294 0.1364
      outer loop
         vertex 3.1660 0.0000 0.0000
         vertex 2.3000 -1.2990 -0.7500
         vertex 2.3000 -1.4489 -0.3882
      endloop
   endfacet
   facet normal 0.7098 -0.6383 -0.2978
      outer loop
         vertex 0.3000 -4.3301 -2.5000
         vertex 2.8000 -2.1651 -1.2500
         vertex 2.8000 -2.4148 -0.6470
      endloop
   endfacet
   facet normal 0.7098 -0.6620 -0.2408
      outer loop
         vertex 0.3000 -4.3301 -2.5000
         vertex 2.8000 -2.4148 -0.6470
         vertex 0.3000 -4.8296 -1.2941
      endloop
   endfacet
   facet normal 0.0000 -0.9398 -0.3418
      outer loop
         vertex 0.3000 -4.8296 -1.2941
         vertex 0.0000 -4.8296 -1.2941
         vertex 0.0000 -4.3301 -2.5000
      endloop
   endfacet
   facet normal 0.0000 -0.9062 -0.4228
      outer loop
         vertex 0.3000 -4.8296 -1.2941
         vertex 0.0000 -4.3301 -2.5000
         vertex 0.3000 -4.3301 -2.5000
      endloop
   endfacet
   facet normal 0.0000 -0.8193 -0.5734
      outer loop
         vertex 9.5095 -1.7678 -1.7678
         vertex 9.5095 -2.1651 -1.2500
         vertex 2.8000 -2.1651 -1.2500
      endloop
   endfacet
   facet normal 0.0000 -0.7659 -0.6430
      outer loop
         vertex 9.5095 -1.7678 -1.7678
         vertex 2.8000 -2.1651 -1.2500
         vertex 2.8000 -1.7678 -1.7678
      endloop
   endfacet
   facet normal 0.7098 -0.5771 -0.4039
      outer loop
         vertex 10.0000 -1.7403 -1.0048
         vertex 9.5095 -2.1651 -1.2500
         vertex 9.5095 -1.7678 -1.7678
      endloop
   endfacet
   facet normal 0.7098 -0.5395 -0.4529
      outer loop
         vertex 10.0000 -1.7403 -1.0048
         vertex 9.5095 -1.7678 -1.7678
         vertex 10.0000 -1.4209 -1.4209
      endloop
   endfacet
   facet normal -0.9343 0.2829 0.2170
      outer loop
         vertex 3.1660 0.0000 0.0000
         vertex 2.3000 -1.0607 -1.0607
         vertex 2.3000 -1.2990 -0.7500
      endloop
   endfacet
   facet normal 0.0000 0.5000 0.8660
      outer loop
         vertex 0.0000 -0.0000 -1.7321
         vertex 0.0000 -1.5000 -0.8660
         vertex 2.3000 -1.5000 -0.8660
      endloop
   endfacet
   facet normal 0.0000 0.5000 0.8660
      outer loop
         vertex 0.0000 -0.0000 -1.7321
         vertex 2.3000 -1.5000 -0.8660
         vertex 2.3000 -0.7500 -1.2990
      endloop
   endfacet
   facet normal 0.0000 0.5000 0.8660
      outer loop
         vertex 0.0000 -0.0000 -1.7321
         vertex 2.3000 -0.7500 -1.2990
         vertex 2.3000 0.0000 -1.7321
      endloop
   endfacet
   facet normal 0.7098 -0.5395 -0.4529
      outer loop
         vertex 0.3000 -4.3301 -2.5000
         vertex 0.3000 -3.5355 -3.5355
         vertex 2.8000 -1.7678 -1.7678
      endloop
   endfacet
   facet normal 0.7098 -0.5771 -0.4039
      outer loop
         vertex 0.3000 -4.3301 -2.5000
         vertex 2.8000 -1.7678 -1.7678
         vertex 2.8000 -2.1651 -1.2500
      endloop
   endfacet
   facet normal 0.0000 -0.7659 -0.6430
      outer loop
         vertex 0.0000 -3.5355 -3.5355
         vertex 0.3000 -3.5355 -3.5355
         vertex 0.3000 -4.3301 -2.5000
      endloop
   endfacet
   facet normal 0.0000 -0.8193 -0.5734
      outer loop
         vertex 0.0000 -3.5355 -3.5355
         vertex 0.3000 -4.3301 -2.5000
         vertex 0.0000 -4.3301 -2.5000
      endloop
   endfacet
   facet normal 0.0000 -0.5734 -0.8193
      outer loop
         vertex 2.8000 -1.7678 -1.7678
         vertex 2.8000 -1.2500 -2.1651
         vertex 9.5095 -1.2500 -2.1651
      endloop
   endfacet
   facet normal 0.0000 -0.6430 -0.7659
      outer loop
         vertex 2.8000 -1.7678 -1.7678
         vertex 9.5095 -1.2500 -2.1651
         vertex 9.5095 -1.7678 -1.7678
      endloop
   endfacet
   facet normal 0.7098 -0.4529 -0.5395
      outer loop
         vertex 10.0000 -1.0048 -1.7403
         vertex 10.0000 -1.4209 -1.4209
         vertex 9.5095 -1.7678 -1.7678
      endloop
   endfacet
   facet normal 0.7098 -0.4039 -0.5771
      outer loop
         vertex 10.0000 -1.0048 -1.7403
         vertex 9.5095 -1.7678 -1.7678
         vertex 9.5095 -1.2500 -2.1651
      endloop
   endfacet
   facet normal -0.9343 0.2170 0.2829
      outer loop
         vertex 3.1660 0.0000 0.0000
         vertex 2.3000 -0.7500 -1.2990
         vertex 2.3000 -1.0607 -1.0607
      endloop
   endfacet
   facet normal 0.7098 -0.4039 -0.5771
      outer loop
         vertex 0.3000 -2.5000 -4.3301
         vertex 2.8000 -1.2500 -2.1651
         vertex 2.8000 -1.7678 -1.7678
      endloop
   endfacet
   facet normal 0.7098 -0.4529 -0.5395
      outer loop
         vertex 0.3000 -2.5000 -4.3301
         vertex 2.8000 -1.7678 -1.7678
         vertex 0.3000 -3.5355 -3.5355
      endloop
   endfacet
   facet normal 0.0000 -0.5734 -0.8193
      outer loop
         vertex 0.0000 -2.5000 -4.3301
         vertex 0.3000 -2.5000 -4.3301
         vertex 0.3000 -3.5355 -3.5355
      endloop
   endfacet
   facet normal 0.0000 -0.6430 -0.7659
      outer loop
         vertex 0.0000 -2.5000 -4.3301
         vertex 0.3000 -3.5355 -3.5355
         vertex 0.0000 -3.5355 -3.5355
      endloop
   endfacet
   facet normal 0.0000 -0.4228 -0.9062
      outer loop
         vertex 9.5095 -0.6470 -2.4148
         vertex 9.5095 -1.2500 -2.1651
         vertex 2.8000 -1.2500 -2.1651
      endloop
   endfacet
   facet normal 0.0000 -0.3418 -0.9398
      outer loop
         vertex 9.5095 -0.6470 -2.4148
         vertex 2.8000 -1.2500 -2.1651
         vertex 2.8000 -0.6470 -2.4148
      endloop
   endfacet
   facet normal 0.7098 -0.2978 -0.6383
      outer loop
         vertex 10.0000 -1.0048 -1.7403
         vertex 9.5095 -1.2500 -2.1651
         vertex 9.5095 -0.6470 -2.4148
      endloop
   endfacet
   facet normal 0.7098 -0.2408 -0.6620
      outer loop
         vertex 10.0000 -1.0048 -1.7403
         vertex 9.5095 -0.6470 -2.4148
         vertex 10.0000 -0.5201 -1.9410
      endloop
   endfacet
   facet normal -1.0000 0.0000 0.0000
      outer loop
         vertex 2.3000 0.0000 -1.7321
         vertex 2.3000 -0.7500 -1.2990
         vertex 2.3000 -0.3882 -1.4489
      endloop
   endfacet
   facet normal -1.0000 0.0000 0.0000
      outer loop
         vertex 2.3000 0.0000 -1.7321
         vertex 2.3000 -0.3882 -1.4489
         vertex 2.3000 0.0000 -1.5000
      endloop
   endfacet
   facet normal -1.0000 0.0000 0.0000
      outer loop
         vertex 2.3000 0.0000 -1.7321
         vertex 2.3000 0.0000 -1.5000
         vertex 2.3000 0.3882 -1.4489
      endloop
   endfacet
   facet normal -1.0000 0.0000 0.0000
      outer loop
         vertex 2.3000 0.0000 -1.7321
         vertex 2.3000 0.3882 -1.4489
         vertex 2.3000 0.7500 -1.2990
      endloop
   endfacet
   facet normal -0.9343 0.1364 0.3294
      outer loop
         vertex 2.3000 -0.7500 -1.2990
         vertex 3.1660 0.0000 0.0000
         vertex 2.3000 -0.3882 -1.4489
      endloop
   endfacet
   facet normal 0.7098 -0.2408 -0.6620
      outer loop
         vertex 0.3000 -1.2941 -4.8296
         vertex 2.8000 -0.6470 -2.4148
         vertex 2.8000 -1.2500 -2.1651
      endloop
   endfacet
   facet normal 0.7098 -0.2978 -0.6383
      outer loop
         vertex 0.3000 -1.2941 -4.8296
         vertex 2.8000 -1.2500 -2.1651
         vertex 0.3000 -2.5000 -4.3301
      endloop
   endfacet
   facet normal 0.0000 -0.4228 -0.9062
      outer loop
         vertex 0.3000 -1.2941 -4.8296
         vertex 0.3000 -2.5000 -4.3301
         vertex 0.0000 -2.5000 -4.3301
      endloop
   endfacet
   facet normal 0.0000 -0.3418 -0.9398
      outer loop
         vertex 0.3000 -1.2941 -4.8296
         vertex 0.0000 -2.5000 -4.3301
         vertex 0.0000 -1.2941 -4.8296
      endloop
   endfacet
   facet normal 0.0000 -0.1739 -0.9848
      outer loop
         vertex 9.5095 -0.6470 -2.4148
         vertex 2.8000 -0.6470 -2.4148
         vertex 2.8000 0.0000 -2.5000
      endloop
   endfacet
   facet normal 0.0000 -0.0869 -0.9962
      outer loop
         vertex 9.5095 -0.6470 -2.4148
         vertex 2.8000 0.0000 -2.5000
         vertex 9.5095 0.0000 -2.5000
      endloop
   endfacet
   facet normal 0.7098 -0.0612 -0.7017
      outer loop
         vertex 9.5095 -0.6470 -2.4148
         vertex 9.5095 0.0000 -2.5000
         vertex 10.0000 0.0000 -2.0095
      endloop
   endfacet
   facet normal 0.7098 -0.1225 -0.6937
      outer loop
         vertex 9.5095 -0.6470 -2.4148
         vertex 10.0000 0.0000 -2.0095
         vertex 10.0000 -0.5201 -1.9410
      endloop
   endfacet
   facet normal -0.9343 0.0465 0.3535
      outer loop
         vertex 2.3000 0.0000 -1.5000
         vertex 2.3000 -0.3882 -1.4489
         vertex 3.1660 0.0000 0.0000
      endloop
   endfacet
   facet normal 0.7098 -0.1225 -0.6937
      outer loop
         vertex 2.8000 -0.6470 -2.4148
         vertex 0.3000 -1.2941 -4.8296
         vertex 0.3000 0.0000 -5.0000
      endloop
   endfacet
   facet normal 0.7098 -0.0612 -0.7017
      outer loop
         vertex 2.8000 -0.6470 -2.4148
         vertex 0.3000 0.0000 -5.0000
         vertex 2.8000 0.0000 -2.5000
      endloop
   endfacet
   facet normal 0.0000 -0.0869 -0.9962
      outer loop
         vertex 0.0000 0.0000 -5.0000
         vertex 0.3000 0.0000 -5.0000
         vertex 0.3000 -1.2941 -4.8296
      endloop
   endfacet
   facet normal 0.0000 -0.1739 -0.9848
      outer loop
         vertex 0.0000 0.0000 -5.0000
         vertex 0.3000 -1.2941 -4.8296
         vertex 0.0000 -1.2941 -4.8296
      endloop
   endfacet
endsolid
